Radley-italic-Bold.ufo
<glyph name="quotedbl" format="1">
  <advance width="748"/>
  <unicode hex="0022"/>
  <outline>
    <contour>
      <point x="676" y="753" type="curve"/>
      <point x="739" y="751"/>
      <point x="878" y="1168"/>
      <point x="884" y="1200" type="curve"/>
      <point x="899" y="1264"/>
      <point x="868" y="1302"/>
      <point x="804" y="1302" type="curve" smooth="yes"/>
      <point x="740" y="1302"/>
      <point x="695" y="1264"/>
      <point x="680" y="1200" type="curve"/>
      <point x="667" y="1137"/>
      <point x="658" y="829"/>
    </contour>
    <contour>
      <point x="360" y="753" type="curve"/>
      <point x="414" y="752"/>
      <point x="548" y="1107"/>
      <point x="567" y="1200" type="curve"/>
      <point x="582" y="1264"/>
      <point x="551" y="1302"/>
      <point x="487" y="1302" type="curve" smooth="yes"/>
      <point x="423" y="1302"/>
      <point x="378" y="1264"/>
      <point x="363" y="1200" type="curve"/>
      <point x="351" y="1139"/>
      <point x="342" y="824"/>
    </contour>
  </outline>
</glyph>
<glyph name="hyphen" format="1">
  <advance width="585"/>
  <unicode hex="002D"/>
  <outline>
    <contour>
      <point x="54" y="343" type="curve"/>
      <point x="497" y="343" type="line" smooth="yes"/>
      <point x="530" y="343"/>
      <point x="553" y="492"/>
      <point x="553" y="492" type="curve"/>
      <point x="108" y="492" type="line" smooth="yes"/>
      <point x="72" y="492"/>
      <point x="54" y="343"/>
    </contour>
  </outline>
</glyph>
<glyph name="three" format="1">
  <advance width="952"/>
  <unicode hex="0033"/>
  <outline>
    <contour>
      <point x="266" y="89" type="curve"/>
      <point x="185" y="178"/>
      <point x="152" y="195"/>
      <point x="99" y="195" type="curve" smooth="yes"/>
      <point x="43" y="195"/>
      <point x="5" y="152"/>
      <point x="5" y="102" type="curve" smooth="yes"/>
      <point x="5" y="45"/>
      <point x="75" y="-20"/>
      <point x="263" y="-20" type="curve" smooth="yes"/>
      <point x="583" y="-20"/>
      <point x="811" y="196"/>
      <point x="811" y="436" type="curve" smooth="yes"/>
      <point x="811" y="555"/>
      <point x="748" y="657"/>
      <point x="622" y="705" type="curve"/>
      <point x="774" y="803"/>
      <point x="878" y="913"/>
      <point x="878" y="1047" type="curve" smooth="yes"/>
      <point x="878" y="1175"/>
      <point x="763" y="1254"/>
      <point x="614" y="1254" type="curve" smooth="yes"/>
      <point x="463" y="1254"/>
      <point x="341" y="1196"/>
      <point x="243" y="1089" type="curve" smooth="yes"/>
      <point x="220" y="1064"/>
      <point x="210" y="1043"/>
      <point x="210" y="1027" type="curve" smooth="yes"/>
      <point x="210" y="1008"/>
      <point x="225" y="997"/>
      <point x="246" y="997" type="curve" smooth="yes"/>
      <point x="266" y="997"/>
      <point x="291" y="1006"/>
      <point x="316" y="1028" type="curve" smooth="yes"/>
      <point x="375" y="1079"/>
      <point x="474" y="1128"/>
      <point x="550" y="1128" type="curve" smooth="yes"/>
      <point x="640" y="1128"/>
      <point x="679" y="1068"/>
      <point x="679" y="1009" type="curve" smooth="yes"/>
      <point x="679" y="887"/>
      <point x="547" y="770"/>
      <point x="431" y="698" type="curve"/>
      <point x="388" y="668"/>
      <point x="357" y="650"/>
      <point x="346" y="640" type="curve"/>
      <point x="471" y="605"/>
      <point x="565" y="507"/>
      <point x="565" y="373" type="curve" smooth="yes"/>
      <point x="565" y="236"/>
      <point x="460" y="88"/>
      <point x="293" y="88" type="curve" smooth="yes"/>
      <point x="284" y="88"/>
      <point x="275" y="88"/>
    </contour>
  </outline>
</glyph>
<glyph name="five" format="1">
  <advance width="894"/>
  <unicode hex="0035"/>
  <outline>
    <contour>
      <point x="141" y="-259" type="curve" smooth="yes"/>
      <point x="441" y="-259"/>
      <point x="702" y="11"/>
      <point x="702" y="235" type="curve" smooth="yes"/>
      <point x="702" y="415"/>
      <point x="556" y="532"/>
      <point x="301" y="532" type="curve" smooth="yes"/>
      <point x="270" y="532" type="line"/>
      <point x="291" y="596"/>
      <point x="307" y="641"/>
      <point x="328" y="704" type="curve" smooth="yes"/>
      <point x="331" y="714"/>
      <point x="336" y="719"/>
      <point x="343" y="721" type="curve"/>
      <point x="413" y="718"/>
      <point x="472" y="718"/>
      <point x="564" y="718" type="curve" smooth="yes"/>
      <point x="644" y="718"/>
      <point x="756" y="722"/>
      <point x="776" y="748" type="curve"/>
      <point x="780" y="775"/>
      <point x="800" y="857"/>
      <point x="820" y="926" type="curve" smooth="yes"/>
      <point x="829" y="957" type="line"/>
      <point x="829" y="985"/>
      <point x="789" y="985"/>
      <point x="780" y="985" type="curve" smooth="yes"/>
      <point x="726" y="985"/>
      <point x="724" y="906"/>
      <point x="659" y="906" type="curve" smooth="yes"/>
      <point x="569" y="906"/>
      <point x="538" y="911"/>
      <point x="527" y="911" type="curve" smooth="yes"/>
      <point x="455" y="911"/>
      <point x="374" y="910"/>
      <point x="282" y="894" type="curve"/>
      <point x="138" y="400"/>
      <point x="133" y="384"/>
      <point x="133" y="385" type="curve" smooth="yes"/>
      <point x="133" y="353"/>
      <point x="159" y="350"/>
      <point x="182" y="350" type="curve" smooth="yes"/>
      <point x="190" y="350"/>
      <point x="195" y="351"/>
      <point x="200" y="351" type="curve"/>
      <point x="209" y="353" type="line"/>
      <point x="407" y="353"/>
      <point x="520" y="274"/>
      <point x="520" y="143" type="curve" smooth="yes"/>
      <point x="520" y="20"/>
      <point x="400" y="-151"/>
      <point x="229" y="-151" type="curve" smooth="yes"/>
      <point x="226" y="-151"/>
      <point x="211" y="-151"/>
      <point x="204" y="-150" type="curve"/>
      <point x="123" y="-61"/>
      <point x="90" y="-44"/>
      <point x="37" y="-44" type="curve" smooth="yes"/>
      <point x="-19" y="-44"/>
      <point x="-57" y="-87"/>
      <point x="-57" y="-137" type="curve" smooth="yes"/>
      <point x="-57" y="-194"/>
      <point x="-5" y="-259"/>
    </contour>
  </outline>
</glyph>
<glyph name="six" format="1">
  <advance width="1055"/>
  <unicode hex="0036"/>
  <outline>
    <contour>
      <point x="81" y="352" type="curve" smooth="yes"/>
      <point x="81" y="155"/>
      <point x="176" y="-20"/>
      <point x="441" y="-20" type="curve" smooth="yes"/>
      <point x="703" y="-20"/>
      <point x="907" y="249"/>
      <point x="907" y="482" type="curve" smooth="yes"/>
      <point x="907" y="647"/>
      <point x="811" y="780"/>
      <point x="620" y="780" type="curve" smooth="yes"/>
      <point x="513" y="780"/>
      <point x="420" y="736"/>
      <point x="335" y="666" type="curve"/>
      <point x="331" y="666" type="line"/>
      <point x="435" y="889"/>
      <point x="590" y="1064"/>
      <point x="852" y="1162" type="curve" smooth="yes"/>
      <point x="877" y="1171"/>
      <point x="887" y="1188"/>
      <point x="887" y="1203" type="curve" smooth="yes"/>
      <point x="887" y="1225"/>
      <point x="865" y="1246"/>
      <point x="831" y="1246" type="curve" smooth="yes"/>
      <point x="825" y="1246"/>
      <point x="818" y="1246"/>
      <point x="811" y="1244" type="curve" smooth="yes"/>
      <point x="421" y="1148"/>
      <point x="81" y="720"/>
    </contour>
    <contour>
      <point x="568" y="685" type="curve" smooth="yes"/>
      <point x="676" y="685"/>
      <point x="710" y="602"/>
      <point x="710" y="538" type="curve" smooth="yes"/>
      <point x="710" y="375"/>
      <point x="638" y="69"/>
      <point x="419" y="69" type="curve" smooth="yes"/>
      <point x="297" y="69"/>
      <point x="262" y="163"/>
      <point x="262" y="256" type="curve" smooth="yes"/>
      <point x="262" y="417"/>
      <point x="362" y="685"/>
    </contour>
  </outline>
</glyph>
<glyph name="seven" format="1">
  <advance width="960"/>
  <unicode hex="0037"/>
  <outline>
    <contour>
      <point x="938" y="888" type="line" smooth="yes"/>
      <point x="941" y="893"/>
      <point x="942" y="897"/>
      <point x="942" y="900" type="curve" smooth="yes"/>
      <point x="942" y="904"/>
      <point x="940" y="906"/>
      <point x="936" y="906" type="curve" smooth="yes"/>
      <point x="460" y="906" type="line" smooth="yes"/>
      <point x="427" y="906"/>
      <point x="369" y="904"/>
      <point x="352" y="920" type="curve"/>
      <point x="312" y="939"/>
      <point x="326" y="986"/>
      <point x="287" y="986" type="curve" smooth="yes"/>
      <point x="262" y="986"/>
      <point x="256" y="963"/>
      <point x="236" y="926" type="curve"/>
      <point x="93" y="632" type="line"/>
      <point x="88" y="624"/>
      <point x="83" y="615"/>
      <point x="83" y="608" type="curve" smooth="yes"/>
      <point x="83" y="600"/>
      <point x="89" y="595"/>
      <point x="107" y="595" type="curve" smooth="yes"/>
      <point x="151" y="595"/>
      <point x="209" y="727"/>
      <point x="344" y="727" type="curve" smooth="yes"/>
      <point x="709" y="727" type="line"/>
      <point x="108" y="-128" type="line" smooth="yes"/>
      <point x="82" y="-166"/>
      <point x="71" y="-202"/>
      <point x="71" y="-232" type="curve" smooth="yes"/>
      <point x="71" y="-297"/>
      <point x="120" y="-342"/>
      <point x="177" y="-342" type="curve" smooth="yes"/>
      <point x="218" y="-342"/>
      <point x="262" y="-319"/>
      <point x="293" y="-263" type="curve" smooth="yes"/>
    </contour>
  </outline>
</glyph>
<glyph name="colon" format="1">
  <advance width="624"/>
  <unicode hex="003A"/>
  <outline>
    <contour>
      <point x="200" y="775" type="curve" smooth="yes"/>
      <point x="200" y="675"/>
      <point x="273" y="625"/>
      <point x="345" y="625" type="curve" smooth="yes"/>
      <point x="419" y="625"/>
      <point x="491" y="675"/>
      <point x="491" y="775" type="curve" smooth="yes"/>
      <point x="491" y="876"/>
      <point x="419" y="926"/>
      <point x="345" y="926" type="curve" smooth="yes"/>
      <point x="273" y="926"/>
      <point x="200" y="876"/>
    </contour>
    <contour>
      <point x="97" y="150" type="curve" smooth="yes"/>
      <point x="97" y="50"/>
      <point x="170" y="0"/>
      <point x="242" y="0" type="curve" smooth="yes"/>
      <point x="316" y="0"/>
      <point x="388" y="50"/>
      <point x="388" y="150" type="curve" smooth="yes"/>
      <point x="388" y="251"/>
      <point x="316" y="301"/>
      <point x="242" y="301" type="curve" smooth="yes"/>
      <point x="170" y="301"/>
      <point x="97" y="251"/>
    </contour>
  </outline>
</glyph>
<glyph name="question" format="1">
  <advance width="784"/>
  <unicode hex="003F"/>
  <outline>
    <contour>
      <point x="257" y="331" type="line"/>
      <point x="308" y="549" type="line"/>
      <point x="325" y="549" type="line" smooth="yes"/>
      <point x="617" y="549"/>
      <point x="690" y="805"/>
      <point x="690" y="969" type="curve" smooth="yes"/>
      <point x="690" y="1075"/>
      <point x="645" y="1253"/>
      <point x="452" y="1253" type="curve" smooth="yes"/>
      <point x="316" y="1253"/>
      <point x="263" y="1196"/>
      <point x="263" y="1155" type="curve" smooth="yes"/>
      <point x="263" y="1118"/>
      <point x="297" y="1086"/>
      <point x="347" y="1086" type="curve" smooth="yes"/>
      <point x="377" y="1086"/>
      <point x="418" y="1104"/>
      <point x="446" y="1104" type="curve" smooth="yes"/>
      <point x="539" y="1104"/>
      <point x="564" y="1003"/>
      <point x="564" y="935" type="curve" smooth="yes"/>
      <point x="564" y="835"/>
      <point x="491" y="720"/>
      <point x="393" y="720" type="curve" smooth="yes"/>
      <point x="279" y="720" type="line" smooth="yes"/>
      <point x="265" y="720"/>
      <point x="245" y="722"/>
      <point x="242" y="711" type="curve" smooth="yes"/>
      <point x="157" y="338" type="line"/>
    </contour>
    <contour>
      <point x="25" y="52" type="curve" smooth="yes"/>
      <point x="25" y="15"/>
      <point x="65" y="-20"/>
      <point x="110" y="-20" type="curve" smooth="yes"/>
      <point x="183" y="-20"/>
      <point x="270" y="40"/>
      <point x="270" y="126" type="curve" smooth="yes"/>
      <point x="270" y="175"/>
      <point x="229" y="216"/>
      <point x="177" y="216" type="curve" smooth="yes"/>
      <point x="92" y="216"/>
      <point x="25" y="155"/>
    </contour>
    <contour>
      <point x="170" y="315" type="curve"/>
      <point x="170" y="312"/>
      <point x="167" y="312"/>
      <point x="167" y="312" type="curve"/>
      <point x="168" y="313" type="line"/>
      <point x="168" y="313"/>
      <point x="168" y="315"/>
    </contour>
  </outline>
</glyph>
<glyph name="G" format="1">
  <advance width="1279"/>
  <unicode hex="0047"/>
  <outline>
    <contour>
      <point x="701" y="1225" type="curve" smooth="yes"/>
      <point x="346" y="1225"/>
      <point x="45" y="917"/>
      <point x="45" y="558" type="curve" smooth="yes"/>
      <point x="45" y="231"/>
      <point x="250" y="-21"/>
      <point x="571" y="-21" type="curve" smooth="yes"/>
      <point x="790" y="-21"/>
      <point x="999" y="104"/>
      <point x="999" y="104" type="curve"/>
      <point x="1082" y="380" type="line" smooth="yes"/>
      <point x="1115" y="492"/>
      <point x="1147" y="502"/>
      <point x="1214" y="502" type="curve"/>
      <point x="1245" y="606" type="line"/>
      <point x="755" y="606" type="line"/>
      <point x="734" y="510"/>
      <point x="734" y="505"/>
      <point x="734" y="502" type="curve"/>
      <point x="847" y="502"/>
      <point x="883" y="473"/>
      <point x="883" y="427" type="curve" smooth="yes"/>
      <point x="883" y="418"/>
      <point x="882" y="409"/>
      <point x="881" y="399" type="curve"/>
      <point x="861" y="295"/>
      <point x="821" y="177"/>
      <point x="821" y="177" type="curve"/>
      <point x="821" y="177"/>
      <point x="717" y="116"/>
      <point x="561" y="116" type="curve" smooth="yes"/>
      <point x="361" y="116"/>
      <point x="263" y="296"/>
      <point x="263" y="517" type="curve" smooth="yes"/>
      <point x="263" y="852"/>
      <point x="503" y="1104"/>
      <point x="727" y="1104" type="curve" smooth="yes"/>
      <point x="884" y="1104"/>
      <point x="961" y="1020"/>
      <point x="975" y="923" type="curve" smooth="yes"/>
      <point x="988" y="836"/>
      <point x="1039" y="798"/>
      <point x="1087" y="798" type="curve" smooth="yes"/>
      <point x="1133" y="798"/>
      <point x="1175" y="833"/>
      <point x="1175" y="892" type="curve" smooth="yes"/>
      <point x="1175" y="1097"/>
      <point x="960" y="1225"/>
    </contour>
  </outline>
</glyph>
<glyph name="H" format="1">
  <advance width="1560"/>
  <unicode hex="0048"/>
  <outline>
    <contour>
      <point x="225" y="226" type="line" smooth="yes"/>
      <point x="198" y="109"/>
      <point x="128" y="104"/>
      <point x="54" y="104" type="curve"/>
      <point x="22" y="0" type="line"/>
      <point x="552" y="0" type="line"/>
      <point x="572" y="96"/>
      <point x="572" y="101"/>
      <point x="572" y="104" type="curve"/>
      <point x="465" y="104"/>
      <point x="427" y="130"/>
      <point x="422" y="173" type="curve"/>
      <point x="422" y="183"/>
      <point x="423" y="194"/>
      <point x="426" y="206" type="curve" smooth="yes"/>
      <point x="609" y="1008" type="line" smooth="yes"/>
      <point x="636" y="1125"/>
      <point x="705" y="1130"/>
      <point x="781" y="1130" type="curve"/>
      <point x="812" y="1234" type="line"/>
      <point x="282" y="1234" type="line"/>
      <point x="261" y="1138"/>
      <point x="261" y="1133"/>
      <point x="261" y="1130" type="curve"/>
      <point x="377" y="1130"/>
      <point x="410" y="1100"/>
      <point x="410" y="1052" type="curve" smooth="yes"/>
      <point x="410" y="1044"/>
      <point x="409" y="1036"/>
      <point x="408" y="1027" type="curve"/>
    </contour>
    <contour>
      <point x="949" y="226" type="line" smooth="yes"/>
      <point x="922" y="109"/>
      <point x="852" y="104"/>
      <point x="776" y="104" type="curve"/>
      <point x="746" y="0" type="line"/>
      <point x="1276" y="0" type="line"/>
      <point x="1296" y="96"/>
      <point x="1296" y="101"/>
      <point x="1296" y="104" type="curve"/>
      <point x="1188" y="104"/>
      <point x="1151" y="130"/>
      <point x="1146" y="173" type="curve"/>
      <point x="1146" y="183"/>
      <point x="1147" y="194"/>
      <point x="1150" y="206" type="curve" smooth="yes"/>
      <point x="1333" y="1008" type="line" smooth="yes"/>
      <point x="1360" y="1125"/>
      <point x="1429" y="1130"/>
      <point x="1505" y="1130" type="curve"/>
      <point x="1536" y="1234" type="line"/>
      <point x="1006" y="1234" type="line"/>
      <point x="985" y="1138"/>
      <point x="985" y="1133"/>
      <point x="985" y="1130" type="curve"/>
      <point x="1100" y="1130"/>
      <point x="1134" y="1100"/>
      <point x="1134" y="1052" type="curve" smooth="yes"/>
      <point x="1134" y="1044"/>
      <point x="1133" y="1036"/>
      <point x="1132" y="1027" type="curve"/>
    </contour>
    <contour>
      <point x="435" y="597" type="line"/>
      <point x="1114" y="597" type="line"/>
      <point x="1105" y="706" type="line"/>
      <point x="426" y="706" type="line"/>
    </contour>
  </outline>
</glyph>
<glyph name="I" format="1">
  <advance width="837"/>
  <unicode hex="0049"/>
  <outline>
    <contour>
      <point x="225" y="226" type="line"/>
      <point x="198" y="109"/>
      <point x="135" y="104"/>
      <point x="60" y="104" type="curve" smooth="yes"/>
      <point x="37" y="104"/>
      <point x="23" y="63"/>
      <point x="23" y="35" type="curve" smooth="yes"/>
      <point x="23" y="16"/>
      <point x="29" y="0"/>
      <point x="47" y="0" type="curve" smooth="yes"/>
      <point x="548" y="0" type="line" smooth="yes"/>
      <point x="573" y="0"/>
      <point x="580" y="31"/>
      <point x="580" y="59" type="curve" smooth="yes"/>
      <point x="580" y="82"/>
      <point x="577" y="104"/>
      <point x="562" y="104" type="curve" smooth="yes"/>
      <point x="473" y="104"/>
      <point x="421" y="115"/>
      <point x="421" y="172" type="curve" smooth="yes"/>
      <point x="421" y="182"/>
      <point x="423" y="193"/>
      <point x="426" y="206" type="curve" smooth="yes"/>
      <point x="610" y="1008" type="line" smooth="yes"/>
      <point x="637" y="1125"/>
      <point x="700" y="1130"/>
      <point x="775" y="1130" type="curve" smooth="yes"/>
      <point x="798" y="1130"/>
      <point x="812" y="1171"/>
      <point x="812" y="1199" type="curve" smooth="yes"/>
      <point x="812" y="1218"/>
      <point x="806" y="1234"/>
      <point x="788" y="1234" type="curve" smooth="yes"/>
      <point x="287" y="1234" type="line" smooth="yes"/>
      <point x="262" y="1234"/>
      <point x="255" y="1203"/>
      <point x="255" y="1175" type="curve" smooth="yes"/>
      <point x="255" y="1152"/>
      <point x="258" y="1130"/>
      <point x="273" y="1130" type="curve" smooth="yes"/>
      <point x="398" y="1130"/>
      <point x="428" y="1109"/>
      <point x="409" y="1027" type="curve" smooth="yes"/>
    </contour>
  </outline>
</glyph>
<glyph name="K" format="1">
  <advance width="1471"/>
  <unicode hex="004B"/>
  <outline>
    <contour>
      <point x="542" y="717" type="line"/>
      <point x="605" y="1008" type="line"/>
      <point x="632" y="1125"/>
      <point x="701" y="1130"/>
      <point x="777" y="1130" type="curve"/>
      <point x="808" y="1234" type="line"/>
      <point x="278" y="1234" type="line"/>
      <point x="257" y="1138"/>
      <point x="257" y="1133"/>
      <point x="257" y="1130" type="curve"/>
      <point x="373" y="1130"/>
      <point x="406" y="1100"/>
      <point x="406" y="1052" type="curve" smooth="yes"/>
      <point x="406" y="1044"/>
      <point x="405" y="1036"/>
      <point x="404" y="1027" type="curve"/>
      <point x="225" y="226" type="line" smooth="yes"/>
      <point x="199" y="109"/>
      <point x="127" y="104"/>
      <point x="54" y="104" type="curve"/>
      <point x="22" y="0" type="line"/>
      <point x="552" y="0" type="line"/>
      <point x="572" y="96"/>
      <point x="572" y="101"/>
      <point x="572" y="104" type="curve"/>
      <point x="465" y="104"/>
      <point x="427" y="130"/>
      <point x="422" y="173" type="curve"/>
      <point x="422" y="183"/>
      <point x="423" y="194"/>
      <point x="426" y="206" type="curve" smooth="yes"/>
      <point x="503" y="544" type="line"/>
      <point x="687" y="666" type="line"/>
      <point x="945" y="168" type="line" smooth="yes"/>
      <point x="948" y="162"/>
      <point x="950" y="156"/>
      <point x="950" y="151" type="curve" smooth="yes"/>
      <point x="950" y="117"/>
      <point x="887" y="104"/>
      <point x="853" y="104" type="curve"/>
      <point x="823" y="0" type="line"/>
      <point x="1353" y="0" type="line"/>
      <point x="1373" y="96"/>
      <point x="1373" y="101"/>
      <point x="1373" y="104" type="curve"/>
      <point x="1217" y="104"/>
      <point x="1182" y="159"/>
      <point x="1150" y="213" type="curve" smooth="yes"/>
      <point x="878" y="675" type="line" smooth="yes"/>
      <point x="864" y="699"/>
      <point x="855" y="718"/>
      <point x="855" y="734" type="curve" smooth="yes"/>
      <point x="855" y="751"/>
      <point x="864" y="766"/>
      <point x="887" y="782" type="curve"/>
      <point x="1174" y="1008" type="line" smooth="yes"/>
      <point x="1288" y="1097"/>
      <point x="1346" y="1119"/>
      <point x="1407" y="1120" type="curve"/>
      <point x="1447" y="1234" type="line"/>
      <point x="917" y="1234" type="line"/>
      <point x="896" y="1138"/>
      <point x="896" y="1133"/>
      <point x="896" y="1130" type="curve"/>
      <point x="957" y="1130"/>
      <point x="994" y="1103"/>
      <point x="994" y="1072" type="curve" smooth="yes"/>
      <point x="994" y="1056"/>
      <point x="984" y="1039"/>
      <point x="964" y="1024" type="curve" smooth="yes"/>
    </contour>
  </outline>
</glyph>
<glyph name="Q" format="1">
  <advance width="1193"/>
  <unicode hex="0051"/>
  <outline>
    <contour>
      <point x="196" y="-317" type="line"/>
      <point x="196" y="-317"/>
      <point x="247" y="-220"/>
      <point x="308" y="-220" type="curve" smooth="yes"/>
      <point x="395" y="-220"/>
      <point x="501" y="-341"/>
      <point x="651" y="-341" type="curve" smooth="yes"/>
      <point x="717" y="-341"/>
      <point x="791" y="-318"/>
      <point x="875" y="-253" type="curve" smooth="yes"/>
      <point x="896" y="-236"/>
      <point x="906" y="-217"/>
      <point x="906" y="-197" type="curve" smooth="yes"/>
      <point x="906" y="-155"/>
      <point x="864" y="-114"/>
      <point x="822" y="-114" type="curve" smooth="yes"/>
      <point x="810" y="-114"/>
      <point x="801" y="-117"/>
      <point x="789" y="-124" type="curve" smooth="yes"/>
      <point x="729" y="-160"/>
      <point x="675" y="-179"/>
      <point x="615" y="-179" type="curve" smooth="yes"/>
      <point x="552" y="-179"/>
      <point x="484" y="-159"/>
      <point x="395" y="-116" type="curve"/>
      <point x="530" y="-11" type="line"/>
      <point x="387" y="51" type="line"/>
      <point x="318" y="-66"/>
      <point x="136" y="-112"/>
      <point x="102" y="-222" type="curve"/>
    </contour>
    <contour>
      <point x="530" y="-21" type="curve" smooth="yes"/>
      <point x="890" y="-21"/>
      <point x="1147" y="343"/>
      <point x="1147" y="672" type="curve" smooth="yes"/>
      <point x="1147" y="1013"/>
      <point x="905" y="1223"/>
      <point x="640" y="1223" type="curve" smooth="yes"/>
      <point x="290" y="1223"/>
      <point x="44" y="883"/>
      <point x="44" y="537" type="curve" smooth="yes"/>
      <point x="44" y="218"/>
      <point x="281" y="-21"/>
    </contour>
    <contour>
      <point x="646" y="1105" type="curve" smooth="yes"/>
      <point x="838" y="1105"/>
      <point x="928" y="936"/>
      <point x="928" y="728" type="curve" smooth="yes"/>
      <point x="928" y="454"/>
      <point x="761" y="115"/>
      <point x="518" y="115" type="curve" smooth="yes"/>
      <point x="342" y="115"/>
      <point x="259" y="280"/>
      <point x="259" y="486" type="curve" smooth="yes"/>
      <point x="259" y="761"/>
      <point x="418" y="1105"/>
    </contour>
  </outline>
</glyph>
<glyph name="R" format="1">
  <advance width="1302"/>
  <unicode hex="0052"/>
  <outline>
    <contour>
      <point x="605" y="625" type="line" smooth="yes"/>
      <point x="618" y="470"/>
      <point x="754" y="-20"/>
      <point x="1149" y="-20" type="curve" smooth="yes"/>
      <point x="1215" y="-20"/>
      <point x="1244" y="9"/>
      <point x="1244" y="48" type="curve" smooth="yes"/>
      <point x="1244" y="96"/>
      <point x="1196" y="121"/>
      <point x="1149" y="136" type="curve" smooth="yes"/>
      <point x="907" y="214"/>
      <point x="808" y="435"/>
      <point x="762" y="573" type="curve"/>
      <point x="1131" y="573"/>
      <point x="1272" y="759"/>
      <point x="1272" y="920" type="curve" smooth="yes"/>
      <point x="1272" y="1083"/>
      <point x="1151" y="1234"/>
      <point x="647" y="1234" type="curve" smooth="yes"/>
      <point x="282" y="1234" type="line"/>
      <point x="261" y="1138"/>
      <point x="261" y="1133"/>
      <point x="261" y="1130" type="curve"/>
      <point x="377" y="1130"/>
      <point x="410" y="1100"/>
      <point x="410" y="1052" type="curve" smooth="yes"/>
      <point x="410" y="1044"/>
      <point x="409" y="1036"/>
      <point x="408" y="1027" type="curve"/>
      <point x="226" y="226" type="line" smooth="yes"/>
      <point x="199" y="109"/>
      <point x="129" y="104"/>
      <point x="55" y="104" type="curve"/>
      <point x="23" y="0" type="line"/>
      <point x="553" y="0" type="line"/>
      <point x="573" y="96"/>
      <point x="573" y="101"/>
      <point x="573" y="104" type="curve"/>
      <point x="466" y="104"/>
      <point x="428" y="130"/>
      <point x="423" y="173" type="curve"/>
      <point x="423" y="183"/>
      <point x="424" y="194"/>
      <point x="427" y="206" type="curve" smooth="yes"/>
      <point x="636" y="1130" type="line"/>
      <point x="657" y="1131"/>
      <point x="677" y="1132"/>
      <point x="696" y="1132" type="curve" smooth="yes"/>
      <point x="954" y="1132"/>
      <point x="1073" y="1030"/>
      <point x="1073" y="923" type="curve" smooth="yes"/>
      <point x="1073" y="803"/>
      <point x="923" y="679"/>
      <point x="651" y="679" type="curve" smooth="yes"/>
      <point x="622" y="679"/>
      <point x="605" y="655"/>
      <point x="605" y="631" type="curve" smooth="yes"/>
    </contour>
  </outline>
</glyph>
<glyph name="g" format="1">
  <advance width="1250"/>
  <unicode hex="0067"/>
  <outline>
    <contour>
      <point x="26" y="-144" type="curve"/>
      <point x="53" y="-309"/>
      <point x="448" y="-329"/>
      <point x="552" y="-329" type="curve" smooth="yes"/>
      <point x="665" y="-329"/>
      <point x="973" y="-299"/>
      <point x="973" y="-140" type="curve" smooth="yes"/>
      <point x="973" y="-129" type="line"/>
      <point x="948" y="160"/>
      <point x="352" y="101"/>
      <point x="352" y="216" type="curve" smooth="yes"/>
      <point x="352" y="256"/>
      <point x="432" y="275"/>
      <point x="467" y="275" type="curve" smooth="yes"/>
      <point x="467" y="275"/>
      <point x="548" y="248"/>
      <point x="633" y="248" type="curve" smooth="yes"/>
      <point x="848" y="248"/>
      <point x="991" y="387"/>
      <point x="991" y="563" type="curve" smooth="yes"/>
      <point x="991" y="618"/>
      <point x="975" y="679"/>
      <point x="944" y="739" type="curve"/>
      <point x="944" y="739"/>
      <point x="1013" y="793"/>
      <point x="1041" y="793" type="curve" smooth="yes"/>
      <point x="1076" y="793"/>
      <point x="1112" y="759"/>
      <point x="1151" y="759" type="curve" smooth="yes"/>
      <point x="1195" y="759"/>
      <point x="1224" y="785"/>
      <point x="1224" y="826" type="curve" smooth="yes"/>
      <point x="1224" y="887"/>
      <point x="1163" y="932"/>
      <point x="1108" y="932" type="curve" smooth="yes"/>
      <point x="1018" y="932"/>
      <point x="942" y="867"/>
      <point x="891" y="806" type="curve"/>
      <point x="801" y="891"/>
      <point x="706" y="926"/>
      <point x="607" y="926" type="curve" smooth="yes"/>
      <point x="372" y="926"/>
      <point x="226" y="783"/>
      <point x="226" y="614" type="curve" smooth="yes"/>
      <point x="226" y="520"/>
      <point x="269" y="420"/>
      <point x="367" y="331" type="curve"/>
      <point x="211" y="288"/>
      <point x="147" y="218"/>
      <point x="147" y="158" type="curve"/>
      <point x="148" y="117"/>
      <point x="177" y="78"/>
      <point x="225" y="60" type="curve" smooth="yes"/>
      <point x="267" y="44" type="line"/>
      <point x="158" y="23"/>
      <point x="22" y="-8"/>
      <point x="22" y="-118" type="curve" smooth="yes"/>
      <point x="22" y="-127"/>
      <point x="23" y="-135"/>
    </contour>
    <contour>
      <point x="195" y="-129" type="curve"/>
      <point x="195" y="-123" type="line" smooth="yes"/>
      <point x="195" y="-37"/>
      <point x="345" y="12"/>
      <point x="345" y="12" type="curve"/>
      <point x="420" y="-1"/>
      <point x="788" y="-73"/>
      <point x="788" y="-142" type="curve" smooth="yes"/>
      <point x="788" y="-231"/>
      <point x="546" y="-228"/>
      <point x="506" y="-228" type="curve" smooth="yes"/>
      <point x="455" y="-228"/>
      <point x="213" y="-228"/>
    </contour>
    <contour>
      <point x="615" y="826" type="curve" smooth="yes"/>
      <point x="738" y="826"/>
      <point x="790" y="722"/>
      <point x="790" y="611" type="curve" smooth="yes"/>
      <point x="790" y="481"/>
      <point x="719" y="343"/>
      <point x="599" y="343" type="curve" smooth="yes"/>
      <point x="476" y="343"/>
      <point x="423" y="447"/>
      <point x="423" y="560" type="curve" smooth="yes"/>
      <point x="423" y="688"/>
      <point x="498" y="826"/>
    </contour>
  </outline>
</glyph>
<glyph name="k" format="1">
  <advance width="1165"/>
  <unicode hex="006B"/>
  <outline>
    <contour>
      <point x="857" y="684" type="curve"/>
      <point x="857" y="672" type="line" smooth="yes"/>
      <point x="857" y="503"/>
      <point x="534" y="472"/>
      <point x="337" y="472" type="curve"/>
      <point x="417" y="763" type="line"/>
      <point x="515" y="787"/>
      <point x="609" y="806"/>
      <point x="685" y="806" type="curve" smooth="yes"/>
      <point x="781" y="806"/>
      <point x="848" y="775"/>
    </contour>
    <contour>
      <point x="528" y="1194" type="line" smooth="yes"/>
      <point x="538" y="1230"/>
      <point x="543" y="1259"/>
      <point x="543" y="1281" type="curve" smooth="yes"/>
      <point x="543" y="1316"/>
      <point x="528" y="1331"/>
      <point x="492" y="1331" type="curve" smooth="yes"/>
      <point x="485" y="1331"/>
      <point x="479" y="1331"/>
      <point x="471" y="1330" type="curve" smooth="yes"/>
      <point x="163" y="1294" type="line" smooth="yes"/>
      <point x="133" y="1290"/>
      <point x="120" y="1227"/>
      <point x="120" y="1208" type="curve" smooth="yes"/>
      <point x="120" y="1187"/>
      <point x="138" y="1179"/>
      <point x="165" y="1179" type="curve" smooth="yes"/>
      <point x="324" y="1179" type="line"/>
      <point x="61" y="228" type="line" smooth="yes"/>
      <point x="50" y="188"/>
      <point x="29" y="129"/>
      <point x="29" y="78" type="curve" smooth="yes"/>
      <point x="29" y="24"/>
      <point x="52" y="-20"/>
      <point x="127" y="-20" type="curve" smooth="yes"/>
      <point x="217" y="-20"/>
      <point x="238" y="65"/>
      <point x="263" y="166" type="curve" smooth="yes"/>
      <point x="315" y="376" type="line"/>
      <point x="397" y="382"/>
      <point x="544" y="382"/>
      <point x="544" y="382" type="curve"/>
      <point x="594" y="197" type="line"/>
      <point x="635" y="14"/>
      <point x="689" y="-21"/>
      <point x="780" y="-21" type="curve" smooth="yes"/>
      <point x="925" y="-21"/>
      <point x="1026" y="136"/>
      <point x="1135" y="285" type="curve"/>
      <point x="1046" y="358" type="line"/>
      <point x="920" y="196"/>
      <point x="866" y="135"/>
      <point x="828" y="135" type="curve" smooth="yes"/>
      <point x="796" y="135"/>
      <point x="768" y="169"/>
      <point x="700" y="396" type="curve"/>
      <point x="700" y="396"/>
      <point x="1047" y="469"/>
      <point x="1047" y="682" type="curve" smooth="yes"/>
      <point x="1047" y="871"/>
      <point x="910" y="925"/>
      <point x="777" y="925" type="curve" smooth="yes"/>
      <point x="656" y="925"/>
      <point x="521" y="884"/>
      <point x="437" y="860" type="curve"/>
    </contour>
  </outline>
</glyph>
<glyph name="l" format="1">
  <advance width="591"/>
  <unicode hex="006C"/>
  <outline>
    <contour>
      <point x="512" y="1194" type="line" smooth="yes"/>
      <point x="522" y="1230"/>
      <point x="527" y="1259"/>
      <point x="527" y="1280" type="curve" smooth="yes"/>
      <point x="527" y="1316"/>
      <point x="512" y="1331"/>
      <point x="476" y="1331" type="curve" smooth="yes"/>
      <point x="469" y="1331"/>
      <point x="463" y="1331"/>
      <point x="455" y="1330" type="curve" smooth="yes"/>
      <point x="147" y="1294" type="line" smooth="yes"/>
      <point x="117" y="1290"/>
      <point x="104" y="1227"/>
      <point x="104" y="1208" type="curve" smooth="yes"/>
      <point x="104" y="1187"/>
      <point x="122" y="1179"/>
      <point x="149" y="1179" type="curve" smooth="yes"/>
      <point x="308" y="1179" type="line"/>
      <point x="86" y="392" type="line" smooth="yes"/>
      <point x="66" y="320"/>
      <point x="39" y="250"/>
      <point x="39" y="178" type="curve" smooth="yes"/>
      <point x="39" y="75"/>
      <point x="98" y="-20"/>
      <point x="208" y="-20" type="curve" smooth="yes"/>
      <point x="338" y="-20"/>
      <point x="430" y="78"/>
      <point x="491" y="168" type="curve" smooth="yes"/>
      <point x="561" y="271" type="line"/>
      <point x="468" y="335" type="line"/>
      <point x="401" y="235" type="line" smooth="yes"/>
      <point x="349" y="157"/>
      <point x="306" y="124"/>
      <point x="276" y="124" type="curve" smooth="yes"/>
      <point x="252" y="124"/>
      <point x="239" y="146"/>
      <point x="239" y="183" type="curve" smooth="yes"/>
      <point x="239" y="205"/>
      <point x="245" y="232"/>
      <point x="254" y="264" type="curve" smooth="yes"/>
    </contour>
  </outline>
</glyph>
<glyph name="m" format="1">
  <advance width="2060"/>
  <unicode hex="006D"/>
  <outline>
    <contour>
      <point x="1084" y="290" type="line"/>
      <point x="1145" y="441"/>
      <point x="1203" y="612"/>
      <point x="1203" y="738" type="curve" smooth="yes"/>
      <point x="1203" y="850"/>
      <point x="1158" y="926"/>
      <point x="1030" y="926" type="curve" smooth="yes"/>
      <point x="797" y="926"/>
      <point x="546" y="436"/>
      <point x="450" y="285" type="curve"/>
      <point x="438" y="290" type="line"/>
      <point x="441" y="298" type="line"/>
      <point x="454" y="346"/>
      <point x="560" y="625"/>
      <point x="560" y="764" type="curve" smooth="yes"/>
      <point x="560" y="857"/>
      <point x="504" y="926"/>
      <point x="414" y="926" type="curve" smooth="yes"/>
      <point x="249" y="926"/>
      <point x="143" y="760"/>
      <point x="69" y="648" type="curve" smooth="yes"/>
      <point x="34" y="595" type="line"/>
      <point x="117" y="522" type="line"/>
      <point x="201" y="651"/>
      <point x="271" y="767"/>
      <point x="331" y="767" type="curve" smooth="yes"/>
      <point x="351" y="767"/>
      <point x="357" y="748"/>
      <point x="357" y="730" type="curve" smooth="yes"/>
      <point x="357" y="630"/>
      <point x="271" y="377"/>
      <point x="214" y="201" type="curve" smooth="yes"/>
      <point x="203" y="169"/>
      <point x="194" y="135"/>
      <point x="194" y="100" type="curve" smooth="yes"/>
      <point x="194" y="23"/>
      <point x="244" y="-21"/>
      <point x="309" y="-21" type="curve" smooth="yes"/>
      <point x="351" y="-21"/>
      <point x="386" y="20"/>
      <point x="406" y="50" type="curve" smooth="yes"/>
      <point x="476" y="158"/>
      <point x="561" y="287"/>
      <point x="592" y="332" type="curve"/>
      <point x="659" y="437"/>
      <point x="867" y="760"/>
      <point x="977" y="760" type="curve" smooth="yes"/>
      <point x="1003" y="760"/>
      <point x="1011" y="742"/>
      <point x="1011" y="722" type="curve" smooth="yes"/>
      <point x="1011" y="690"/>
      <point x="992" y="648"/>
      <point x="987" y="634" type="curve" smooth="yes"/>
      <point x="945" y="509"/>
      <point x="846" y="211"/>
      <point x="846" y="102" type="curve" smooth="yes"/>
      <point x="846" y="29"/>
      <point x="878" y="-20"/>
      <point x="922" y="-20" type="curve" smooth="yes"/>
      <point x="987" y="-20"/>
      <point x="1053" y="41"/>
      <point x="1097" y="111" type="curve" smooth="yes"/>
      <point x="1165" y="220"/>
      <point x="1197" y="287"/>
      <point x="1228" y="332" type="curve" smooth="yes"/>
      <point x="1300" y="436"/>
      <point x="1512" y="760"/>
      <point x="1629" y="760" type="curve" smooth="yes"/>
      <point x="1655" y="760"/>
      <point x="1663" y="742"/>
      <point x="1663" y="722" type="curve" smooth="yes"/>
      <point x="1663" y="637"/>
      <point x="1497" y="367"/>
      <point x="1497" y="156" type="curve" smooth="yes"/>
      <point x="1497" y="59"/>
      <point x="1553" y="-20"/>
      <point x="1654" y="-20" type="curve" smooth="yes"/>
      <point x="1801" y="-21"/>
      <point x="1884" y="80"/>
      <point x="1998" y="234" type="curve" smooth="yes"/>
      <point x="2029" y="276" type="line"/>
      <point x="2029" y="276"/>
      <point x="2014" y="292"/>
      <point x="1946" y="348" type="curve"/>
      <point x="1920" y="311" type="line" smooth="yes"/>
      <point x="1841" y="199"/>
      <point x="1793" y="126"/>
      <point x="1739" y="126" type="curve" smooth="yes"/>
      <point x="1719" y="126"/>
      <point x="1712" y="144"/>
      <point x="1712" y="174" type="curve" smooth="yes"/>
      <point x="1712" y="318"/>
      <point x="1873" y="561"/>
      <point x="1873" y="751" type="curve" smooth="yes"/>
      <point x="1873" y="833"/>
      <point x="1822" y="924"/>
      <point x="1682" y="924" type="curve" smooth="yes"/>
      <point x="1466" y="924"/>
      <point x="1194" y="437"/>
      <point x="1096" y="285" type="curve"/>
    </contour>
  </outline>
</glyph>
<glyph name="p" format="1">
  <advance width="1379"/>
  <unicode hex="0070"/>
  <outline>
    <contour>
      <point x="108" y="-393" type="curve"/>
      <point x="589" y="-393" type="line"/>
      <point x="624" y="-391"/>
      <point x="642" y="-362"/>
      <point x="642" y="-329" type="curve" smooth="yes"/>
      <point x="642" y="-238"/>
      <point x="476" y="-326"/>
      <point x="476" y="-232" type="curve" smooth="yes"/>
      <point x="476" y="-224"/>
      <point x="477" y="-214"/>
      <point x="481" y="-202" type="curve" smooth="yes"/>
      <point x="540" y="-1" type="line"/>
      <point x="1031" y="-1"/>
      <point x="1333" y="340"/>
      <point x="1333" y="609" type="curve" smooth="yes"/>
      <point x="1333" y="783"/>
      <point x="1208" y="926"/>
      <point x="922" y="926" type="curve" smooth="yes"/>
      <point x="878" y="926"/>
      <point x="832" y="921"/>
      <point x="786" y="911" type="curve"/>
      <point x="854" y="1159" type="line" smooth="yes"/>
      <point x="862" y="1187"/>
      <point x="865" y="1213"/>
      <point x="865" y="1236" type="curve" smooth="yes"/>
      <point x="865" y="1302"/>
      <point x="832" y="1341"/>
      <point x="768" y="1341" type="curve" smooth="yes"/>
      <point x="677" y="1341"/>
      <point x="643" y="1237"/>
      <point x="624" y="1159" type="curve" smooth="yes"/>
      <point x="540" y="821" type="line"/>
      <point x="364" y="732"/>
      <point x="185" y="587"/>
      <point x="38" y="397" type="curve" smooth="yes"/>
      <point x="34" y="391"/>
      <point x="25" y="377"/>
      <point x="25" y="366" type="curve" smooth="yes"/>
      <point x="26" y="350"/>
      <point x="47" y="313"/>
      <point x="72" y="313" type="curve" smooth="yes"/>
      <point x="80" y="313"/>
      <point x="87" y="317"/>
      <point x="94" y="325" type="curve" smooth="yes"/>
      <point x="219" y="466"/>
      <point x="358" y="575"/>
      <point x="498" y="648" type="curve"/>
      <point x="289" y="-192" type="line" smooth="yes"/>
      <point x="252" y="-342"/>
      <point x="76" y="-238"/>
      <point x="75" y="-356" type="curve" smooth="yes"/>
      <point x="75" y="-365"/>
      <point x="72" y="-393"/>
    </contour>
    <contour>
      <point x="903" y="764" type="curve" smooth="yes"/>
      <point x="1049" y="764"/>
      <point x="1112" y="686"/>
      <point x="1112" y="585" type="curve" smooth="yes"/>
      <point x="1112" y="389"/>
      <point x="882" y="105"/>
      <point x="565" y="105" type="curve"/>
      <point x="740" y="743" type="line"/>
      <point x="797" y="757"/>
      <point x="852" y="764"/>
    </contour>
  </outline>
</glyph>
<glyph name="quoteleft" format="1">
  <advance width="325"/>
  <unicode hex="2018"/>
  <outline>
    <contour>
      <point x="240" y="1233" type="line"/>
      <point x="134" y="1173"/>
      <point x="13" y="1058"/>
      <point x="13" y="931" type="curve" smooth="yes"/>
      <point x="13" y="833"/>
      <point x="73" y="760"/>
      <point x="158" y="760" type="curve" smooth="yes"/>
      <point x="222" y="760"/>
      <point x="270" y="807"/>
      <point x="270" y="857" type="curve"/>
      <point x="257" y="894"/>
      <point x="222" y="971"/>
      <point x="222" y="1002" type="curve" smooth="yes"/>
      <point x="222" y="1059"/>
      <point x="256" y="1071"/>
      <point x="330" y="1122" type="curve"/>
    </contour>
  </outline>
</glyph>
<glyph name="fraction" format="1">
  <advance width="673"/>
  <unicode hex="2044"/>
  <outline>
    <contour>
      <point x="944" y="1378" type="curve"/>
      <point x="923" y="1395"/>
      <point x="897" y="1402"/>
      <point x="868" y="1402" type="curve"/>
      <point x="800" y="1370"/>
      <point x="708" y="1160"/>
      <point x="667" y="1089" type="curve" smooth="yes"/>
      <point x="90" y="109" type="line" smooth="yes"/>
      <point x="66" y="67"/>
      <point x="43" y="24"/>
      <point x="35" y="-21" type="curve"/>
      <point x="30" y="-37"/>
      <point x="29" y="-54"/>
      <point x="29" y="-70" type="curve"/>
      <point x="57" y="-70" type="line" smooth="yes"/>
      <point x="73" y="-70"/>
      <point x="89" y="-69"/>
      <point x="105" y="-65" type="curve"/>
      <point x="139" y="-15"/>
      <point x="172" y="37"/>
      <point x="201" y="89" type="curve" smooth="yes"/>
      <point x="431" y="507"/>
      <point x="740" y="965"/>
    </contour>
  </outline>
</glyph>
